<?xml version="1.0" ?>
<!DOCTYPE svg PUBLIC "-//W3C//DTD SVG 1.1//EN" "http://www.w3.org/Graphics/SVG/1.1/DTD/svg11.dtd">
<svg width="400" height="256" version="1.1" xmlns="http://www.w3.org/2000/svg">
<circle cx="344.294" cy="169.252" r="0.565087" fill="rgb(0,0,0)" />
<circle cx="325.542" cy="199.027" r="0.657992" fill="rgb(0,0,0)" />
<circle cx="347.686" cy="199.693" r="0.639185" fill="rgb(0,0,0)" />
<circle cx="239.159" cy="214.232" r="0.488238" fill="rgb(0,0,0)" />
<circle cx="43.6489" cy="182.316" r="0.0713022" fill="rgb(0,0,0)" />
<circle cx="364.436" cy="32.4101" r="0.467633" fill="rgb(0,0,0)" />
<circle cx="195.143" cy="31.2528" r="0.35313" fill="rgb(0,0,0)" />
<circle cx="178.019" cy="31.281" r="0.767877" fill="rgb(0,0,0)" />
<circle cx="273.457" cy="209.065" r="1.52506" fill="rgb(0,0,0)" />
<circle cx="342.359" cy="221.271" r="0.619691" fill="rgb(0,0,0)" />
<circle cx="276.222" cy="58.7617" r="0.755728" fill="rgb(0,0,0)" />
<circle cx="13.6931" cy="149.501" r="0.33889" fill="rgb(0,0,0)" />
<circle cx="364.711" cy="91.368" r="0.769122" fill="rgb(0,0,0)" />
<circle cx="4.08904" cy="117.826" r="1.23145" fill="rgb(0,0,0)" />
<circle cx="236.358" cy="36.3873" r="0.24534" fill="rgb(0,0,0)" />
<circle cx="330.07" cy="61.8211" r="0.615361" fill="rgb(0,0,0)" />
<circle cx="361.986" cy="85.7903" r="0.86718" fill="rgb(0,0,0)" />
<circle cx="141.717" cy="33.1094" r="0.516365" fill="rgb(0,0,0)" />
<circle cx="171.232" cy="219.259" r="0.560969" fill="rgb(0,0,0)" />
<circle cx="381.171" cy="4.98827" r="1.08159" fill="rgb(0,0,0)" />
<circle cx="4.07162" cy="77.6659" r="0.95364" fill="rgb(0,0,0)" />
<circle cx="22.0243" cy="162.781" r="0.126626" fill="rgb(0,0,0)" />
<circle cx="336.973" cy="209.953" r="0.683176" fill="rgb(0,0,0)" />
<circle cx="183.379" cy="230.398" r="0.402292" fill="rgb(0,0,0)" />
<circle cx="129.885" cy="200.382" r="0.359569" fill="rgb(0,0,0)" />
<circle cx="264.061" cy="74.0321" r="0.43259" fill="rgb(0,0,0)" />
<circle cx="360.727" cy="235.52" r="0.115337" fill="rgb(0,0,0)" />
<circle cx="293.215" cy="61.5362" r="1.09788" fill="rgb(0,0,0)" />
<circle cx="223.801" cy="225.207" r="0.236405" fill="rgb(0,0,0)" />
<circle cx="275.47" cy="73.3682" r="0.784616" fill="rgb(0,0,0)" />
<circle cx="289.184" cy="199.892" r="0.535461" fill="rgb(0,0,0)" />
<circle cx="204.158" cy="252.715" r="1.05878" fill="rgb(0,0,0)" />
<circle cx="356.141" cy="210.951" r="0.45125" fill="rgb(0,0,0)" />
<circle cx="349.182" cy="39.6218" r="0.376262" fill="rgb(0,0,0)" />
<circle cx="236.276" cy="46.3203" r="0.384991" fill="rgb(0,0,0)" />
<circle cx="27.5207" cy="22.9212" r="0.320474" fill="rgb(0,0,0)" />
<circle cx="358.918" cy="99.5326" r="0.886099" fill="rgb(0,0,0)" />
<circle cx="10.3586" cy="61.8968" r="0.50295" fill="rgb(0,0,0)" />
<circle cx="301.055" cy="84.0443" r="0.776602" fill="rgb(0,0,0)" />
<circle cx="365.9" cy="100.807" r="0.369122" fill="rgb(0,0,0)" />
<circle cx="215.693" cy="229.613" r="0.592652" fill="rgb(0,0,0)" />
<circle cx="386.616" cy="55.1064" r="0.494516" fill="rgb(0,0,0)" />
<circle cx="363.131" cy="221.886" r="0.0801525" fill="rgb(0,0,0)" />
<circle cx="39.3928" cy="22.4657" r="0.310512" fill="rgb(0,0,0)" />
<circle cx="275.169" cy="88.2632" r="0.505914" fill="rgb(0,0,0)" />
<circle cx="222.491" cy="32.7612" r="0.18021" fill="rgb(0,0,0)" />
<circle cx="86.7548" cy="29.1802" r="0.503932" fill="rgb(0,0,0)" />
<circle cx="83.1518" cy="198.238" r="0.133193" fill="rgb(0,0,0)" />
<circle cx="349.81" cy="228.009" r="0.268767" fill="rgb(0,0,0)" />
<circle cx="126.102" cy="32.2403" r="0.582516" fill="rgb(0,0,0)" />
<circle cx="59.5825" cy="185.712" r="0.554851" fill="rgb(0,0,0)" />
<circle cx="300.862" cy="71.088" r="0.675208" fill="rgb(0,0,0)" />
<circle cx="266.141" cy="215.209" r="0.610375" fill="rgb(0,0,0)" />
<circle cx="363.232" cy="110.461" r="0.993701" fill="rgb(0,0,0)" />
<circle cx="262.825" cy="60.5763" r="0.881489" fill="rgb(0,0,0)" />
<circle cx="253.396" cy="41.2813" r="0.37444" fill="rgb(0,0,0)" />
<circle cx="253.067" cy="213.722" r="0.990603" fill="rgb(0,0,0)" />
<circle cx="207.563" cy="243.67" r="0.57857" fill="rgb(0,0,0)" />
<circle cx="352.127" cy="155.818" r="0.484243" fill="rgb(0,0,0)" />
<circle cx="113.109" cy="31.7443" r="0.631864" fill="rgb(0,0,0)" />
<circle cx="375.5" cy="21.295" r="0.486162" fill="rgb(0,0,0)" />
<circle cx="113.901" cy="200.071" r="0.641857" fill="rgb(0,0,0)" />
<circle cx="15.4391" cy="45.1893" r="0.555601" fill="rgb(0,0,0)" />
<circle cx="382.985" cy="42.2104" r="0.401697" fill="rgb(0,0,0)" />
<circle cx="368.719" cy="69.9209" r="1.17944" fill="rgb(0,0,0)" />
<circle cx="154.711" cy="223.036" r="0.355178" fill="rgb(0,0,0)" />
<circle cx="96.7214" cy="202.064" r="0.173703" fill="rgb(0,0,0)" />
<circle cx="369.355" cy="120.558" r="0.193123" fill="rgb(0,0,0)" />
<circle cx="313.255" cy="82.1849" r="0.632081" fill="rgb(0,0,0)" />
<circle cx="142.83" cy="211.267" r="0.329124" fill="rgb(0,0,0)" />
<circle cx="281.619" cy="46.6291" r="0.738856" fill="rgb(0,0,0)" />
<circle cx="368.467" cy="75.9318" r="0.588172" fill="rgb(0,0,0)" />
<circle cx="62.6342" cy="26.5074" r="0.374814" fill="rgb(0,0,0)" />
<circle cx="387.479" cy="29.4349" r="0.461826" fill="rgb(0,0,0)" />
<circle cx="381.805" cy="60.7538" r="0.298019" fill="rgb(0,0,0)" />
<circle cx="16.5558" cy="27.5413" r="0.271138" fill="rgb(0,0,0)" />
<circle cx="51.1861" cy="24.5222" r="0.322909" fill="rgb(0,0,0)" />
<circle cx="374.36" cy="70.6121" r="0.399345" fill="rgb(0,0,0)" />
<circle cx="309.321" cy="200.447" r="0.386468" fill="rgb(0,0,0)" />
<circle cx="1.98723" cy="98.7902" r="1.09669" fill="rgb(0,0,0)" />
<circle cx="9.42931" cy="134.55" r="0.900764" fill="rgb(0,0,0)" />
<circle cx="360.165" cy="144.329" r="0.522619" fill="rgb(0,0,0)" />
<circle cx="341.052" cy="185.502" r="0.31686" fill="rgb(0,0,0)" />
<circle cx="342.131" cy="53.7599" r="0.529545" fill="rgb(0,0,0)" />
<circle cx="208.89" cy="30.7659" r="0.255214" fill="rgb(0,0,0)" />
<circle cx="323.366" cy="73.5003" r="0.580157" fill="rgb(0,0,0)" />
<circle cx="191.334" cy="244.711" r="1.0877" fill="rgb(0,0,0)" />
<circle cx="369.421" cy="84.1556" r="0.1679" fill="rgb(0,0,0)" />
<circle cx="160.004" cy="32.8145" r="0.508772" fill="rgb(0,0,0)" />
<circle cx="367.658" cy="132.871" r="0.205747" fill="rgb(0,0,0)" />
<circle cx="34.1353" cy="171.426" r="0.214324" fill="rgb(0,0,0)" />
<circle cx="74.7439" cy="27.9322" r="0.440472" fill="rgb(0,0,0)" />
<circle cx="375.35" cy="65.0985" r="1.01684" fill="rgb(0,0,0)" />
<circle cx="71.3266" cy="191.86" r="0.576379" fill="rgb(0,0,0)" />
<circle cx="394.088" cy="17.755" r="0.867636" fill="rgb(0,0,0)" />
<circle cx="99.6337" cy="30.491" r="0.64672" fill="rgb(0,0,0)" />
<circle cx="229.693" cy="217.805" r="0.672061" fill="rgb(0,0,0)" />
<circle cx="266.635" cy="87.1549" r="0.250328" fill="rgb(0,0,0)" />
<circle cx="268.576" cy="45.08" r="0.351877" fill="rgb(0,0,0)" />
<circle cx="209.772" cy="236.361" r="0.67326" fill="rgb(0,0,0)" />
</svg>
